<mxfile host="app.diagrams.net" modified="2023-09-02T16:09:40.495Z" agent="Mozilla/5.0 (Macintosh; Intel Mac OS X 10_15_7) AppleWebKit/537.36 (KHTML, like Gecko) Chrome/115.0.0.0 Safari/537.36" version="21.7.2" etag="5_-dJR9Ii0KbXUAsFJBh" type="github">
  <diagram name="Page-1" id="OU_pV-sR7YR9gE-c9S5s">
    <mxGraphModel>
      <root>
        <mxCell id="0" />
        <mxCell id="1" parent="0" />
      </root>
    </mxGraphModel>
  </diagram>
</mxfile>
